#!OML:ASF F:\VICON\USERDATA\INSTALL\rory3\rory3.ASF
:FULLY-SPECIFIED
:DEGREES
1
root 1.10092 17.8301 -17.0494 5.01366 -1.81726 -0.408729
lowerback 5.49 -0.654811 -1.12866
upperback 0.356861 -0.878607 2.26915
thorax -2.65828 -0.412912 3.04214
lowerneck -18.7454 -3.74492 -8.42201
upperneck 14.716 -3.81876 5.31394
head 7.89313 -1.77323 2.67472
rclavicle -8.15017e-015 -4.37326e-015
rhumerus -31.9039 -9.31354 -79.3528
rradius 32.3796
rwrist 5.69445
rhand -11.1654 14.3686
rfingers 7.12502
rthumb 14.8611 -15.0784
lclavicle -8.15017e-015 -4.37326e-015
lhumerus -28.7586 6.85747 85.9404
lradius 27.3366
lwrist -7.7427
lhand -17.6612 25.713
lfingers 7.12502
lthumb 8.59732 55.5179
rfemur -9.39508 6.18613 21.1159
rtibia 20.1098
rfoot -10.028 -10.1963
rtoes 3.96686
lfemur -9.45701 -2.94439 -19.9906
ltibia 20.1062
lfoot -11.843 5.5577
ltoes 0.745975
2
root 1.10198 17.8241 -17.0499 4.97889 -1.80403 -0.404549
lowerback 5.50271 -0.637168 -1.11876
upperback 0.371533 -0.855218 2.24863
thorax -2.65214 -0.401675 3.01355
lowerneck -18.7364 -3.79875 -8.45343
upperneck 14.702 -3.89586 5.37534
head 7.89455 -1.80556 2.6907
rclavicle 1.88845e-015 -3.02153e-014
rhumerus -31.8619 -9.35075 -79.3836
rradius 32.5458
rwrist 5.57614
rhand -10.9228 13.9218
rfingers 7.12502
rthumb 15.0949 -15.5078
lclavicle 1.88845e-015 -3.02153e-014
lhumerus -28.7382 6.71745 86.0416
lradius 27.2834
lwrist -7.11462
lhand -18.066 26.0507
lfingers 7.12502
lthumb 8.20665 55.8713
rfemur -9.25481 6.05926 21.1386
rtibia 19.9175
rfoot -9.76249 -10.2
rtoes 1.82835
lfemur -9.59063 -2.91903 -20.0132
ltibia 20.3767
lfoot -11.9163 5.58872
ltoes 0.413934
3
root 1.10143 17.8228 -17.048 4.99964 -1.68647 -0.409665
lowerback 5.51288 -0.665175 -1.12125
upperback 0.32978 -0.891856 2.25945
thorax -2.6985 -0.418893 3.02968
lowerneck -18.7641 -3.84236 -8.47891
upperneck 14.8062 -3.94815 5.36886
head 7.93835 -1.83284 2.68634
rclavicle -3.47873e-015 -9.93923e-015
rhumerus -31.8384 -9.22149 -79.4234
rradius 32.7106
rwrist 5.44328
rhand -10.6409 13.4164
rfingers 7.12502
rthumb 15.3664 -15.9926
lclavicle -3.47873e-015 -9.93923e-015
lhumerus -28.7652 6.90718 86.0142
lradius 27.2638
lwrist -7.35875
lhand -17.8861 26.1302
lfingers 7.12502
lthumb 8.3803 55.944
rfemur -9.25154 5.92428 21.1707
rtibia 19.9152
rfoot -9.69422 -10.2534
rtoes 1.01256
lfemur -9.64325 -2.9434 -20.0025
ltibia 20.3895
lfoot -11.9134 5.51637
ltoes -0.0798563
4
root 1.10252 17.8232 -17.0438 4.99564 -1.57606 -0.325159
lowerback 5.48585 -0.689433 -1.18861
upperback 0.3322 -0.928847 2.2427
thorax -2.67782 -0.436891 3.05259
lowerneck -18.8405 -3.87905 -8.44921
upperneck 14.8502 -3.98854 5.30409
head 7.96712 -1.85591 2.65404
rclavicle -7.45443e-015 8.34896e-015
rhumerus -31.7785 -9.09681 -79.476
rradius 32.8186
rwrist 5.38086
rhand -10.525 13.2455
rfingers 7.12502
rthumb 15.478 -16.1548
lclavicle -7.45443e-015 8.34896e-015
lhumerus -28.7351 7.15624 85.9715
lradius 27.2691
lwrist -7.61788
lhand -18.0301 25.0739
lfingers 7.12502
lthumb 8.2413 54.8931
rfemur -9.21112 5.7369 21.0864
rtibia 19.893
rfoot -9.66869 -10.1729
rtoes 0.792344
lfemur -9.61715 -3.10241 -20.0903
ltibia 20.4644
lfoot -12.0269 5.50617
ltoes 0.021475
5
root 1.10476 17.8225 -17.0455 4.97234 -1.4874 -0.346865
lowerback 5.56998 -0.708941 -1.14355
upperback 0.299346 -0.951598 2.24446
thorax -2.75817 -0.447441 3.03279
lowerneck -18.7334 -3.87081 -8.459
upperneck 14.6606 -3.98806 5.35625
head 7.88675 -1.85125 2.67313
rclavicle 2.14687e-014 -1.43125e-014
rhumerus -31.7977 -9.04011 -79.5094
rradius 32.9154
rwrist 5.28901
rhand -10.6355 12.7982
rfingers 7.12502
rthumb 15.3716 -16.6104
lclavicle 2.14687e-014 -1.43125e-014
lhumerus -28.7322 7.27589 85.9467
lradius 27.3108
lwrist -7.58142
lhand -18.0245 24.5548
lfingers 7.12502
lthumb 8.24669 54.3739
rfemur -9.19814 5.61257 21.108
rtibia 19.9131
rfoot -9.62912 -10.1235
rtoes 0.621209
lfemur -9.61752 -3.21811 -20.0733
ltibia 20.5256
lfoot -12.0361 5.48355
ltoes 0.73995
